<?xml version="1.0"?>
<svg width="880" height="880" xmlns="http://www.w3.org/2000/svg" xmlns:svg="http://www.w3.org/2000/svg" version="1.1" xml:space="preserve">
 <metadata id="metadata8">image/svg+xml</metadata>
 <defs id="defs6">
  <clipPath clipPathUnits="userSpaceOnUse" id="clipPath18">
   <path d="m-220.56,724l800,0l0,-600l-800,0l0,600z" id="path16"/>
  </clipPath>
 </defs>
 <g class="layer">
  <title>Layer 1</title>
  <g id="g10" transform="matrix(2.44693 0 0 -2.44693 -1.3531 1466.92)">
   <g id="g12">
    <g clip-path="url(#clipPath18)" id="g14">
     <g id="g20" transform="translate(229.298 172.088)">
      <path d="m-220.56,124c-2.46,1.5 -4.35,3.56 -5.64,6.18c-1.3,2.61 -1.95,5.54 -1.95,8.78c0,3.34 0.71,6.41 2.15,9.19c1.43,2.78 3.4,4.99 5.9,6.61c2.49,1.62 5.24,2.43 8.25,2.43c2.83,0 5.26,-0.38 7.29,-1.14c2.02,-0.76 3.54,-1.75 4.56,-2.96c0.57,-0.75 0.92,-1.68 1.06,-2.81c0.13,-1.13 0.2,-2.75 0.2,-4.84l-1.32,0c-1.28,6.38 -4.7,9.57 -10.27,9.57c-3.55,0 -6.36,-1.25 -8.46,-3.75c-2.09,-2.49 -3.14,-6.59 -3.14,-12.3c0,-2.7 0.41,-5.18 1.22,-7.44c0.81,-2.26 2.08,-4.09 3.82,-5.49c1.74,-1.41 3.92,-2.11 6.56,-2.11c2.39,0 4.55,0.62 6.48,1.85c1.92,1.23 3.52,3.02 4.81,5.34l1.46,-1.11c-1.58,-2.9 -3.51,-5 -5.79,-6.3c-2.28,-1.3 -5.11,-1.95 -8.48,-1.95c-3.34,0 -6.25,0.75 -8.71,2.25" fill="#006a99" fill-rule="nonzero" id="path22"/>
     </g>
     <g id="g24" transform="translate(275.014 184.062)">
      <path d="m-220.56,124c0,3.11 -0.4,5.37 -1.19,6.78c-0.79,1.42 -1.97,2.13 -3.52,2.13c-1.38,0 -2.51,-0.75 -3.39,-2.25c-0.88,-1.5 -1.32,-3.72 -1.32,-6.66l9.42,0zm-10.23,-12.1c-1.69,1.08 -2.98,2.56 -3.87,4.43c-0.9,1.87 -1.34,3.99 -1.34,6.35c0,2.5 0.45,4.69 1.37,6.56c0.91,1.87 2.17,3.32 3.79,4.33c1.62,1.01 3.48,1.52 5.57,1.52c3.27,0 5.88,-0.95 7.82,-2.84c1.94,-1.89 2.92,-4.45 2.92,-7.69l-0.16,-2.74l-15.29,0c0,-3.03 0.54,-5.36 1.62,-6.96c1.08,-1.6 2.57,-2.4 4.46,-2.4c1.59,0 2.94,0.35 4.05,1.06c1.11,0.71 2.16,1.74 3.14,3.09l1.31,-1.01c-0.97,-1.66 -2.21,-2.96 -3.72,-3.9c-1.5,-0.95 -3.38,-1.42 -5.64,-1.42c-2.33,0 -4.34,0.54 -6.03,1.62" fill="#006a99" fill-rule="nonzero" id="path26"/>
     </g>
     <g id="g28" transform="translate(305.24 173.025)">
      <path d="m-220.56,124l0,19.44l-7.85,0c0,-4.39 -0.21,-8.1 -0.63,-11.14c-0.42,-3.03 -1.14,-5.8 -2.15,-8.3l10.63,0zm-18.63,-1.77c0,0.5 0.17,0.93 0.51,1.26c0.33,0.34 0.76,0.51 1.26,0.51l1.67,0c1.05,2.36 1.82,4.9 2.31,7.62c0.49,2.72 0.73,5.36 0.73,7.92c0,1.59 -0.24,2.78 -0.73,3.57c-0.49,0.8 -1.48,1.19 -2.97,1.19l0,1.32l21.62,0l0,-21.62l1.72,0c0.51,0 0.93,-0.17 1.27,-0.51c0.34,-0.33 0.51,-0.76 0.51,-1.26l0,-8.41l-2.33,0c-0.27,3.01 -0.84,5.09 -1.7,6.26c-0.86,1.16 -2.13,1.74 -3.82,1.74l-12.2,0c-1.72,0 -3.01,-0.58 -3.85,-1.74c-0.84,-1.17 -1.4,-3.25 -1.67,-6.26l-2.33,0l0,8.41z" fill="#006a99" fill-rule="nonzero" id="path30"/>
     </g>
     <g id="g32" transform="translate(337.134 177.937)">
      <path d="m-220.56,124c0,3.44 -1.82,5.16 -5.47,5.16c-1.01,0 -1.92,-0.13 -2.73,-0.4l0,-9.52c0.81,-0.27 1.72,-0.4 2.73,-0.4c3.65,0 5.47,1.72 5.47,5.16m-13.92,10.33c0,1.72 -0.24,2.99 -0.71,3.82c-0.47,0.83 -1.42,1.24 -2.84,1.24l-0.6,0l0,1.32l5.31,0c1.22,0 2.14,-0.19 2.79,-0.56c0.64,-0.37 1.09,-1 1.36,-1.9c0.27,-0.89 0.41,-2.2 0.41,-3.92l0,-3.24l3.8,0c3.2,0 5.73,-0.58 7.59,-1.75c1.86,-1.16 2.78,-2.94 2.78,-5.34c0,-2.4 -0.92,-4.18 -2.78,-5.34c-1.86,-1.17 -4.39,-1.75 -7.59,-1.75l-9.52,0l0,17.42z" fill="#006a99" fill-rule="nonzero" id="path34"/>
     </g>
     <g id="g36" transform="translate(373.788 172.012)">
      <path d="m-220.56,124c-1.49,1.55 -2.23,3.9 -2.23,7.04l0,9.67l-7.69,-17.87l-1.42,0l-8.71,18.37l0,-18.32l-2.33,0l0,23.74l5.62,0l7.55,-15.84l6.98,16.14l5.77,0l0,-15.89c0,-2.5 0.32,-4.46 0.94,-5.87c0.63,-1.42 1.56,-2.2 2.81,-2.33l0,-1.17c-3.37,0 -5.8,0.78 -7.29,2.33" fill="#006a99" fill-rule="nonzero" id="path38"/>
     </g>
     <g id="g40" transform="translate(403.228 175.379)">
      <path d="m-220.56,124c1.03,1.91 1.54,4.36 1.54,7.37c0,3 -0.51,5.45 -1.54,7.36c-1.03,1.91 -2.44,2.86 -4.23,2.86c-1.79,0 -3.19,-0.95 -4.2,-2.86c-1.01,-1.9 -1.52,-4.36 -1.52,-7.36c0,-3.01 0.51,-5.46 1.52,-7.37c1.01,-1.91 2.41,-2.86 4.2,-2.86c1.79,0 3.2,0.95 4.23,2.86m-10.45,-3.39c-1.76,1.09 -3.11,2.58 -4.05,4.45c-0.95,1.88 -1.42,3.98 -1.42,6.31c0,2.33 0.47,4.43 1.42,6.3c0.94,1.87 2.29,3.36 4.05,4.46c1.75,1.09 3.83,1.64 6.22,1.64c2.4,0 4.48,-0.55 6.26,-1.64c1.77,-1.1 3.13,-2.59 4.07,-4.46c0.94,-1.87 1.42,-3.97 1.42,-6.3c0,-2.33 -0.48,-4.43 -1.42,-6.31c-0.94,-1.87 -2.3,-3.36 -4.07,-4.45c-1.78,-1.1 -3.86,-1.65 -6.26,-1.65c-2.39,0 -4.47,0.55 -6.23,1.65" fill="#006a99" fill-rule="nonzero" id="path42"/>
     </g>
     <g id="g44" transform="translate(434.034 184.062)">
      <path d="m-220.56,124c0,3.11 -0.4,5.37 -1.19,6.78c-0.79,1.42 -1.97,2.13 -3.52,2.13c-1.38,0 -2.51,-0.75 -3.39,-2.25c-0.88,-1.5 -1.32,-3.72 -1.32,-6.66l9.42,0zm-10.23,-12.1c-1.69,1.08 -2.98,2.56 -3.87,4.43c-0.89,1.87 -1.34,3.99 -1.34,6.35c0,2.5 0.45,4.69 1.37,6.56c0.91,1.87 2.17,3.32 3.79,4.33c1.62,1.01 3.48,1.52 5.57,1.52c3.28,0 5.88,-0.95 7.82,-2.84c1.94,-1.89 2.92,-4.45 2.92,-7.69l-0.16,-2.74l-15.29,0c0,-3.03 0.54,-5.36 1.62,-6.96c1.08,-1.6 2.57,-2.4 4.46,-2.4c1.58,0 2.93,0.35 4.05,1.06c1.11,0.71 2.16,1.74 3.14,3.09l1.31,-1.01c-0.98,-1.66 -2.22,-2.96 -3.72,-3.9c-1.5,-0.95 -3.38,-1.42 -5.64,-1.42c-2.33,0 -4.34,0.54 -6.03,1.62" fill="#006a99" fill-rule="nonzero" id="path46"/>
     </g>
     <g id="g48" transform="translate(466.283 188.264)">
      <path d="m-220.56,124c0,1.72 -0.24,3 -0.71,3.82c-0.47,0.83 -1.42,1.24 -2.83,1.24l-0.61,0l0,1.32l5.31,0c1.22,0 2.15,-0.19 2.79,-0.56c0.64,-0.37 1.09,-1 1.37,-1.9c0.27,-0.89 0.4,-2.2 0.4,-3.92l0,-4.35l8.96,0l0,10.73l5.72,0l0,-17.42c0,-1.72 0.24,-2.99 0.71,-3.82c0.47,-0.83 1.42,-1.24 2.84,-1.24l0.65,0l0,-1.32l-5.36,0c-1.22,0 -2.15,0.18 -2.79,0.54c-0.64,0.35 -1.09,0.98 -1.36,1.9c-0.27,0.91 -0.41,2.22 -0.41,3.94l0,4.51l-8.96,0l0,-10.89l-5.72,0l0,17.42z" fill="#006a99" fill-rule="nonzero" id="path50"/>
     </g>
     <g id="g52" transform="translate(512.151 184.062)">
      <path d="m-220.56,124c0,3.11 -0.4,5.37 -1.19,6.78c-0.79,1.42 -1.97,2.13 -3.52,2.13c-1.38,0 -2.51,-0.75 -3.39,-2.25c-0.88,-1.5 -1.32,-3.72 -1.32,-6.66l9.42,0zm-10.23,-12.1c-1.69,1.08 -2.98,2.56 -3.87,4.43c-0.89,1.87 -1.34,3.99 -1.34,6.35c0,2.5 0.45,4.69 1.37,6.56c0.91,1.87 2.17,3.32 3.79,4.33c1.62,1.01 3.48,1.52 5.57,1.52c3.27,0 5.88,-0.95 7.82,-2.84c1.94,-1.89 2.92,-4.45 2.92,-7.69l-0.16,-2.74l-15.29,0c0,-3.03 0.54,-5.36 1.62,-6.96c1.08,-1.6 2.57,-2.4 4.46,-2.4c1.59,0 2.94,0.35 4.05,1.06c1.11,0.71 2.16,1.74 3.14,3.09l1.31,-1.01c-0.97,-1.66 -2.21,-2.96 -3.72,-3.9c-1.5,-0.95 -3.38,-1.42 -5.64,-1.42c-2.33,0 -4.34,0.54 -6.03,1.62" fill="#006a99" fill-rule="nonzero" id="path54"/>
     </g>
     <g id="g56" transform="translate(541.313 174.62)">
      <path d="m-220.56,124c1.01,1.4 1.52,3.77 1.52,7.11c0,3.24 -0.52,5.59 -1.54,7.04c-1.04,1.45 -2.26,2.18 -3.68,2.18c-1.41,0 -2.64,-0.73 -3.67,-2.18c-1.03,-1.45 -1.54,-3.8 -1.54,-7.04c0,-3.34 0.51,-5.71 1.52,-7.11c1.01,-1.4 2.24,-2.1 3.69,-2.1c1.46,0 2.69,0.7 3.7,2.1m-11.9,-1.09c-2.02,2.13 -3.04,5.22 -3.04,9.27l0,1.72c0,4.11 0.32,7.35 0.94,9.69c0.63,2.35 1.52,4.06 2.68,5.14c1.17,1.08 2.71,1.84 4.64,2.28l7.29,1.67c1.41,0.34 2.48,0.68 3.19,1.04c0.71,0.35 1.11,0.82 1.21,1.39l1.32,0l0,-3.75c0,-1.52 -0.81,-2.48 -2.43,-2.88l-8.56,-1.93c-2.26,-0.54 -4.02,-1.63 -5.26,-3.29c-1.25,-1.65 -1.96,-4.17 -2.13,-7.54l0.25,0c0.71,2.26 1.8,3.96 3.27,5.09c1.47,1.13 3.42,1.69 5.85,1.69c3,0 5.46,-0.96 7.36,-2.88c1.91,-1.93 2.86,-4.76 2.86,-8.51c0,-3.78 -1,-6.62 -3.01,-8.53c-2.01,-1.91 -4.75,-2.86 -8.23,-2.86c-3.44,0 -6.17,1.06 -8.2,3.19" fill="#006a99" fill-rule="nonzero" id="path58"/>
     </g>
     <g id="g60" transform="translate(572.777 175.379)">
      <path d="m-220.56,124c1.03,1.91 1.54,4.36 1.54,7.37c0,3 -0.51,5.45 -1.54,7.36c-1.03,1.91 -2.44,2.86 -4.23,2.86c-1.79,0 -3.19,-0.95 -4.2,-2.86c-1.01,-1.9 -1.52,-4.36 -1.52,-7.36c0,-3.01 0.51,-5.46 1.52,-7.37c1.01,-1.91 2.41,-2.86 4.2,-2.86c1.79,0 3.2,0.95 4.23,2.86m-10.45,-3.39c-1.76,1.09 -3.11,2.58 -4.05,4.45c-0.95,1.88 -1.42,3.98 -1.42,6.31c0,2.33 0.47,4.43 1.42,6.3c0.94,1.87 2.29,3.36 4.05,4.46c1.75,1.09 3.83,1.64 6.22,1.64c2.4,0 4.48,-0.55 6.26,-1.64c1.77,-1.1 3.13,-2.59 4.07,-4.46c0.94,-1.87 1.42,-3.97 1.42,-6.3c0,-2.33 -0.48,-4.43 -1.42,-6.31c-0.94,-1.87 -2.3,-3.36 -4.07,-4.45c-1.78,-1.1 -3.86,-1.65 -6.26,-1.65c-2.39,0 -4.47,0.55 -6.22,1.65" fill="#006a99" fill-rule="nonzero" id="path62"/>
     </g>
     <g id="g64" transform="translate(274.913 144.359)">
      <path d="m-220.56,124c-0.1,3.91 -2.25,5.02 -4.55,5.02c-1.61,0 -2.4,-0.08 -3.14,-0.14c-0.27,-0.02 -0.41,0.06 -0.41,0.33l0,0.83c0,0.24 0.18,0.37 0.41,0.41c0.87,0.16 1.41,0.27 3.16,0.27c3,0 6.41,-1.39 6.41,-7.05l0,-1.55c0,-5.66 -3.41,-7.05 -6.41,-7.05c-1.75,0 -2.29,0.1 -3.16,0.27c-0.23,0.04 -0.41,0.16 -0.41,0.41l0,0.83c0,0.27 0.14,0.35 0.41,0.33c0.74,-0.06 1.53,-0.14 3.14,-0.14c2.36,0 4.55,1.17 4.55,5.35l0,0.27l-6.82,0c-0.23,0 -0.41,0.18 -0.41,0.41l0,0.79c0,0.22 0.18,0.41 0.41,0.41l6.82,0z" fill="#009238" fill-rule="nonzero" id="path66"/>
     </g>
     <g id="g68" transform="translate(302.665 135.575)">
      <path d="m-220.56,124l-1.61,0c-0.19,0 -0.33,0.06 -0.46,0.21l-5.83,7.09l0,-6.89c0.01,-0.2 -0.14,-0.41 -0.37,-0.41l-1.13,0c-0.21,0 -0.38,0.19 -0.38,0.41l0,14.55c0,0.21 0.17,0.4 0.4,0.4l1.09,0c0.21,0 0.39,-0.17 0.39,-0.4l0,-6.67l5.96,6.88c0.12,0.12 0.2,0.19 0.41,0.19l1.49,0c0.33,0 0.35,-0.27 0.2,-0.44l-6.22,-7.02l6.23,-7.44c0.14,-0.19 0.14,-0.46 -0.17,-0.46" fill="#009238" fill-rule="nonzero" id="path70"/>
     </g>
     <g id="g72" transform="translate(326.739 144.586)">
      <path d="m-220.56,124c0,3.47 -1.41,4.8 -3.68,4.8c-2.25,0 -3.7,-1.33 -3.7,-4.8l0,-2.67c0,-3.47 1.43,-4.79 3.7,-4.79c2.25,0 3.68,1.32 3.68,4.79l0,2.67zm-3.68,-9.16c-3.24,0 -5.6,1.9 -5.6,6.49l0,2.67c0,4.59 2.36,6.49 5.6,6.49c3.25,0 5.58,-1.9 5.58,-6.49l0,-2.67c0,-4.58 -2.33,-6.49 -5.58,-6.49" fill="#009238" fill-rule="nonzero" id="path74"/>
     </g>
     <g id="g76" transform="translate(349.138 140.866)">
      <path d="m-220.56,124l-4.11,0c-0.23,0 -0.4,0.12 -0.4,0.35l0,0.81c0,0.2 0.17,0.37 0.4,0.37l4.11,0c0.23,0 0.39,-0.15 0.39,-0.37l0,-0.81c0,-0.2 -0.16,-0.35 -0.39,-0.35" fill="#009238" fill-rule="nonzero" id="path78"/>
     </g>
     <g id="g80" transform="translate(374.845 148.348)">
      <path d="m-220.56,124c0,0.62 -0.06,0.89 -0.93,0.89l-5.21,0c-0.87,0 -0.93,-0.27 -0.93,-0.89l0,-12.36c0,-0.23 -0.18,-0.41 -0.41,-0.41l-1.06,0c-0.22,0 -0.41,0.18 -0.41,0.41l0,12.36c0,2.38 1.8,2.58 2.81,2.58l5.21,0c1.01,0 2.81,-0.2 2.81,-2.58l0,-12.36c0,-0.23 -0.19,-0.41 -0.41,-0.41l-1.06,0c-0.22,0 -0.41,0.18 -0.41,0.41l0,12.36z" fill="#009238" fill-rule="nonzero" id="path82"/>
     </g>
     <g id="g84" transform="translate(402.617 144.586)">
      <path d="m-220.56,124c0,3.47 -1.41,4.8 -3.68,4.8c-2.25,0 -3.7,-1.33 -3.7,-4.8l0,-2.67c0,-3.47 1.43,-4.79 3.7,-4.79c2.25,0 3.68,1.32 3.68,4.79l0,2.67zm-3.68,-9.16c-3.24,0 -5.6,1.9 -5.6,6.49l0,2.67c0,4.59 2.36,6.49 5.6,6.49c3.25,0 5.58,-1.9 5.58,-6.49l0,-2.67c0,-4.58 -2.33,-6.49 -5.58,-6.49" fill="#009238" fill-rule="nonzero" id="path86"/>
     </g>
     <g id="g88" transform="translate(429.645 135.698)">
      <path d="m-220.56,124c-0.87,-0.16 -1.67,-0.27 -3.43,-0.27c-2.54,0 -5.46,1.37 -5.46,6.39l0,2.87c0,5.06 2.92,6.39 5.46,6.39c1.3,0 2.56,-0.19 3.47,-0.33c0.19,-0.02 0.33,-0.09 0.33,-0.27l0,-1.06c0,-0.14 -0.06,-0.24 -0.31,-0.22c-0.74,0.06 -2.27,0.18 -3.47,0.18c-2.03,0 -3.6,-1.18 -3.6,-4.69l0,-2.87c0,-3.47 1.57,-4.69 3.6,-4.69c1.18,0 2.67,0.1 3.41,0.16c0.27,0.02 0.41,-0.06 0.41,-0.33l0,-0.85c0,-0.24 -0.18,-0.37 -0.41,-0.41" fill="#009238" fill-rule="nonzero" id="path90"/>
     </g>
     <g id="g92" transform="translate(454.587 135.534)">
      <path d="m-220.56,124c-0.78,-0.08 -2.81,-0.1 -4.03,-0.1c-2.89,0 -4.4,1.09 -4.4,3.84l0,7.96c0,2.75 1.51,3.84 4.4,3.84c2,0 3.16,-0.04 4.03,-0.12c0.12,-0.02 0.21,-0.17 0.21,-0.29l0,-1.03c0,-0.15 -0.09,-0.25 -0.23,-0.25l-3.99,0c-2.19,0 -2.54,-0.58 -2.54,-2.15l0,-2.88l6.34,0c0.23,0 0.42,-0.18 0.42,-0.41l0,-0.78c0,-0.23 -0.19,-0.42 -0.42,-0.42l-6.34,0l0,-3.47c0,-1.57 0.35,-2.15 2.54,-2.15l3.99,0c0.14,0 0.23,-0.1 0.23,-0.25l0,-1.05c0,-0.13 -0.09,-0.27 -0.21,-0.29" fill="#009238" fill-rule="nonzero" id="path94"/>
     </g>
     <g id="g96" transform="translate(476.635 149.072)">
      <path d="m-220.56,124c-0.06,0.23 -0.19,0.37 -0.39,0.37c-0.23,0 -0.35,-0.14 -0.42,-0.37l-3.59,-13.19c-0.04,-0.16 -0.21,-0.31 -0.38,-0.31l-1.21,0c-0.21,0 -0.36,0.15 -0.36,0.33c0,0.04 0,0.11 0.02,0.15l3.83,13.45c0.35,1.26 1.32,1.57 2.11,1.57c0.76,0 1.73,-0.28 2.08,-1.55l3.83,-13.47c0.02,-0.04 0.02,-0.11 0.02,-0.15c0,-0.18 -0.13,-0.33 -0.35,-0.33l-1.22,0c-0.19,0 -0.31,0.15 -0.35,0.31l-3.62,13.19z" fill="#009238" fill-rule="nonzero" id="path98"/>
     </g>
     <g id="g100" transform="translate(506.64 144.586)">
      <path d="m-220.56,124c0,3.47 -1.41,4.8 -3.68,4.8c-2.25,0 -3.7,-1.33 -3.7,-4.8l0,-2.67c0,-3.47 1.43,-4.79 3.7,-4.79c2.25,0 3.68,1.32 3.68,4.79l0,2.67zm-3.68,-9.16c-3.24,0 -5.6,1.9 -5.6,6.49l0,2.67c0,4.59 2.36,6.49 5.6,6.49c3.25,0 5.58,-1.9 5.58,-6.49l0,-2.67c0,-4.58 -2.33,-6.49 -5.58,-6.49" fill="#009238" fill-rule="nonzero" id="path102"/>
     </g>
     <g id="g104" transform="translate(534.93 135.575)">
      <path d="m-220.56,124l-1.61,0c-0.19,0 -0.33,0.06 -0.46,0.21l-5.83,7.09l0,-6.89c0,-0.2 -0.14,-0.41 -0.37,-0.41l-1.13,0c-0.21,0 -0.38,0.19 -0.38,0.41l0,14.55c0,0.21 0.17,0.4 0.4,0.4l1.09,0c0.21,0 0.39,-0.17 0.39,-0.4l0,-6.67l5.96,6.88c0.12,0.12 0.2,0.19 0.41,0.19l1.49,0c0.33,0 0.35,-0.27 0.21,-0.44l-6.23,-7.02l6.23,-7.44c0.14,-0.19 0.14,-0.46 -0.17,-0.46" fill="#009238" fill-rule="nonzero" id="path106"/>
     </g>
     <g id="g108" transform="translate(551.503 221.708)">
      <path d="m-220.56,124c-11.14,13.65 -46.15,28.23 -61.66,33.32c-52.59,17.27 -125.28,17.07 -177.65,-0.5c-22.5,-7.55 -55.63,-23.31 -64.39,-38.03c41.58,24.33 74.97,39.2 129.51,41.71c79.25,3.65 116.96,-12.29 134.3,-18.98c3.18,-0.92 6.43,-1.86 9.8,-2.84c-2.13,-0.02 -5.27,1.1 -9.8,2.84c-38.27,11.07 -63.69,17.85 -111.84,14.58c-19.76,-1.34 -97.11,-12.11 -110.39,-34.07c34.56,11.89 40.69,16.86 82.88,18.26c39.3,1.3 56.18,-3.86 91.79,-10.96c-15.54,16.55 -92.15,16.5 -112.49,13.86c22.65,12.31 119.65,7.04 160.48,-6.78c18.83,-6.38 19.23,-8.32 31.04,-13.29c6.7,-2.82 3.83,-0.33 11.12,-3c-2.3,3.84 -0.4,1.06 -2.7,3.88" fill="#006a99" fill-rule="evenodd" id="path110"/>
     </g>
     <g id="g112" transform="translate(332.859 315.208)">
      <path d="m-220.56,124c5.32,8.95 -5.27,13.23 -10.42,27.22c-13.26,36 5.98,78.34 33.46,91.62c-7.26,-5.53 -13.1,-11.78 -17.69,-18.45c18.76,24.25 51.46,35.24 82.2,25l2.78,-0.93c39.48,-13.14 60.49,-56.24 46.46,-95.43c-2.21,-12.73 -8.18,-13.43 -1.79,-20.9c13.01,10.14 17,41.76 14.9,61.64l-2.67,-9.57c-2.07,15.19 -4.64,29.4 -15.89,44.02c-25.86,33.61 -73.75,43.77 -111.99,19.15c-7.9,-5.08 -12.19,-10.21 -18.08,-15.18c26.2,34.85 55.46,30.29 82.14,31.24c-3.94,2.37 -0.51,0.89 -5.63,2.17c-30.67,7.67 -68.63,-10.47 -87.37,-39.53c-17.09,-26.49 -16.94,-64.23 0.37,-91.78c2.64,-4.21 4.28,-7.12 9.22,-10.29" fill="#ffc700" fill-rule="evenodd" id="path114"/>
     </g>
     <g id="g116" transform="translate(496.361 265.239)">
      <path d="m-220.56,124c-5.42,5.24 -6.83,9.68 -11.05,16.64l-8.27,13.92c-1.7,2.23 -1.52,2.1 -2.76,2.71c-3.56,10.07 -10.16,18.52 -18.76,22.45c-11.66,-2.67 -12.32,-9.35 -22.37,-5.74c-3.76,7.45 -16.28,28.59 -22.24,32.12c-2.35,8.01 -9.09,14.98 -16.65,18.35c-12.61,-2.49 -26.05,-20.26 -32.9,-31.55c-4.32,-9.82 -13.41,-16.78 -17.17,-27.88c-4.39,-3.73 -10.39,-12.74 -12.46,-17.96c-10.15,3 -5.19,5.01 -17.81,4.43c-7.14,-8.06 -34.22,-48.93 -54.05,-48.78c15.34,-0.85 38.88,18.23 44.01,26.13l1.4,-7.09c2.91,6.63 7.57,11.69 12.09,16.17l6.7,-10.98c6.26,13.23 23.73,29.64 30.74,42.76c0.44,0.3 1.04,1.33 1.22,0.99c0.65,-1.2 2.67,5.35 10.66,8.86c-3.68,-7.34 -10.47,-17.15 -12.4,-24.73c8.44,6.79 20.55,27.59 22.69,34.13c5.38,3.23 2.19,1.32 5.18,4.83c1.03,1.2 1.07,1.62 2.31,3.02c1.95,2.23 1.59,1.73 2.47,2.38l-15.24,-33.81c5.72,7.18 11.2,12.28 15.24,21.61c5.53,-4.91 1.79,-4.83 6.09,-4.02l2.19,12.37l16.68,-43.88c4.78,-9.19 -0.37,-2.46 6.36,-7.18l-6.41,36.98c6.33,-5.78 9.19,-13.18 11.72,-16.57l5.9,-5.51c0.45,-0.34 1.09,-0.77 1.66,-1.12c-1.99,8.07 -2.28,8.96 -6.91,14.06c2.66,2.07 -2.81,2.45 4.75,0.64c2.51,-7.04 17.03,-18.41 22.9,-22.49c-3.56,9.89 -7.22,7.08 -2.48,14.8c5.08,-2.75 0.83,0.35 4.59,-3.65l8.13,-14.85c2.05,2.73 7.73,-5.37 0.67,9.27l5.04,-1.85c1.45,-5.23 22.55,-35.52 29.16,-37.05c15.91,-3.66 3.71,4.28 22.99,-6.52c8.08,-4.53 14.77,-6.15 24.95,-8.57c-50.47,32.91 -19.68,28.41 -48.56,22.16" fill="#009238" fill-rule="evenodd" id="path118"/>
     </g>
    </g>
   </g>
  </g>
 </g>
</svg>