<svg class="t216__logo t-img" data-hook-clogo="coverlogo" xmlns="http://www.w3.org/2000/svg" viewBox="0 0 750.22 676.05">
  <g>
    <path d="M23.26,609.86a31,31,0,0,1-11.81-12.93,40.84,40.84,0,0,1-4.07-18.37,41.28,41.28,0,0,1,4.5-19.23,35.47,35.47,0,0,1,12.34-13.82,31,31,0,0,1,17.26-5.08,43.46,43.46,0,0,1,15.25,2.38q6.36,2.38,9.54,6.2a11.63,11.63,0,0,1,2.22,5.87A92.19,92.19,0,0,1,68.91,565H66.16q-4-20-21.5-20Q33.53,545,27,552.82T20.4,578.56A45.73,45.73,0,0,0,23,594.13a25.4,25.4,0,0,0,8,11.49Q36.4,610,44.66,610a24.62,24.62,0,0,0,13.56-3.87A30.26,30.26,0,0,0,68.28,595l3.07,2.33q-5,9.12-12.13,13.19t-17.74,4.08A34.35,34.35,0,0,1,23.26,609.86Z" transform="translate(-7.38 -10.5)" style="fill: #fff"></path>
    <path d="M97.51,610.12a22,22,0,0,1-8.1-9.27,30.49,30.49,0,0,1-2.81-13.29,31,31,0,0,1,2.86-13.72,21,21,0,0,1,19.6-12.23q10.26,0,16.36,5.93t6.09,16.1l-.32,5.72h-32c0,6.35,1.12,11.21,3.39,14.56a10.64,10.64,0,0,0,9.32,5,15.49,15.49,0,0,0,8.47-2.23,24.55,24.55,0,0,0,6.57-6.46l2.75,2.12a23.62,23.62,0,0,1-7.78,8.15,21.8,21.8,0,0,1-11.82,3A22.87,22.87,0,0,1,97.51,610.12Zm21.4-25.31q0-9.75-2.49-14.2a8,8,0,0,0-7.36-4.45c-2.9,0-5.26,1.58-7.1,4.72s-2.75,7.78-2.75,13.93Z" transform="translate(-7.38 -10.5)" style="fill: #fff"></path>
    <path d="M143.16,611.6a3.62,3.62,0,0,1,3.71-3.7h3.5A70.61,70.61,0,0,0,155.19,592a93.66,93.66,0,0,0,1.53-16.57q0-5-1.53-7.47c-1-1.66-3.09-2.49-6.2-2.49v-2.75h45.23V607.9h3.6a3.61,3.61,0,0,1,3.7,3.7v17.59h-4.87q-.84-9.44-3.55-13.09t-8-3.65H159.58q-5.4,0-8.05,3.65T148,629.19h-4.88Zm39-3.7V567.22H165.72a173.86,173.86,0,0,1-1.32,23.31,72.66,72.66,0,0,1-4.5,17.37Z" transform="translate(-7.38 -10.5)" style="fill: #fff"></path>
    <path d="M219.74,576q0-5.4-1.48-8t-5.93-2.6h-1.27v-2.75h11.12a11.85,11.85,0,0,1,5.82,1.16,6.53,6.53,0,0,1,2.86,4,30,30,0,0,1,.85,8.21v6.78h7.94q10.07,0,15.89,3.66t5.83,11.17q0,7.53-5.83,11.18t-15.89,3.65H219.74Zm29.13,21.61q0-10.8-11.44-10.8a17.9,17.9,0,0,0-5.72.85v19.91a18.2,18.2,0,0,0,5.72.84Q248.88,608.42,248.87,597.62Z" transform="translate(-7.38 -10.5)" style="fill: #fff"></path>
    <path d="M325.55,610q-4.67-4.87-4.66-14.73V575.06l-16.1,37.39h-3L283.61,574v38.34h-4.87V562.67h11.75l15.79,33.15L320.89,562H333v33.26q0,7.85,2,12.29c1.3,3,3.26,4.59,5.88,4.87v2.44Q330.21,614.89,325.55,610Z" transform="translate(-7.38 -10.5)" style="fill: #fff"></path>
    <path d="M365.27,610.07a23,23,0,0,1-8.47-9.32,30.77,30.77,0,0,1,0-26.38,23,23,0,0,1,8.47-9.32,24.13,24.13,0,0,1,13-3.44,24.4,24.4,0,0,1,13.08,3.44,22.9,22.9,0,0,1,8.53,9.32,30.87,30.87,0,0,1,0,26.38,22.9,22.9,0,0,1-8.53,9.32,24.4,24.4,0,0,1-13.08,3.44A24.13,24.13,0,0,1,365.27,610.07Zm21.87-7.1q3.24-6,3.23-15.41t-3.23-15.41q-3.22-6-8.84-6t-8.79,6q-3.18,6-3.18,15.41T369.51,603q3.18,6,8.79,6T387.14,603Z" transform="translate(-7.38 -10.5)" style="fill: #fff"></path>
    <path d="M430.2,610.12a22,22,0,0,1-8.1-9.27,30.49,30.49,0,0,1-2.81-13.29,31,31,0,0,1,2.86-13.72,20.94,20.94,0,0,1,19.59-12.23q10.27,0,16.37,5.93t6.09,16.1l-.32,5.72h-32q0,9.52,3.39,14.56a10.66,10.66,0,0,0,9.33,5,15.49,15.49,0,0,0,8.47-2.23,24.55,24.55,0,0,0,6.57-6.46l2.75,2.12a23.64,23.64,0,0,1-7.79,8.15,21.76,21.76,0,0,1-11.81,3A22.87,22.87,0,0,1,430.2,610.12Zm21.39-25.31q0-9.75-2.48-14.2a8,8,0,0,0-7.37-4.45c-2.89,0-5.26,1.58-7.09,4.72s-2.76,7.78-2.76,13.93Z" transform="translate(-7.38 -10.5)" style="fill: #fff"></path>
    <path d="M519.06,576q0-5.4-1.48-8c-1-1.73-3-2.6-5.93-2.6h-1.27v-2.75H521.5a11.92,11.92,0,0,1,5.83,1.16,6.56,6.56,0,0,1,2.86,4A30.45,30.45,0,0,1,531,576v9.11h18.75V562.67h12V599.1c0,3.61.49,6.27,1.48,8s3,2.6,5.93,2.6h1.38v2.75H559.31a12.27,12.27,0,0,1-5.82-1.11,6.3,6.3,0,0,1-2.86-4,30.57,30.57,0,0,1-.85-8.27v-9.42H531v22.77h-12Z" transform="translate(-7.38 -10.5)" style="fill: #fff"></path>
    <path d="M593.63,610.12a22,22,0,0,1-8.1-9.27,30.49,30.49,0,0,1-2.81-13.29,31.11,31.11,0,0,1,2.86-13.72,20.94,20.94,0,0,1,19.6-12.23q10.26,0,16.36,5.93t6.09,16.1l-.32,5.72h-32q0,9.52,3.4,14.56a10.64,10.64,0,0,0,9.32,5,15.49,15.49,0,0,0,8.47-2.23,24.55,24.55,0,0,0,6.57-6.46l2.75,2.12a23.62,23.62,0,0,1-7.78,8.15,21.82,21.82,0,0,1-11.82,3A22.87,22.87,0,0,1,593.63,610.12ZM615,584.81q0-9.75-2.49-14.2a8,8,0,0,0-7.36-4.45c-2.9,0-5.26,1.58-7.1,4.72s-2.76,7.78-2.76,13.93Z" transform="translate(-7.38 -10.5)" style="fill: #fff"></path>
    <path d="M651.15,606.84q-6.36-6.68-6.36-19.39v-3.6q0-12.92,2-20.28t5.61-10.75a20.76,20.76,0,0,1,9.69-4.77l15.26-3.49a33.06,33.06,0,0,0,6.67-2.17,4.19,4.19,0,0,0,2.54-2.92h2.76v7.84q0,4.77-5.09,6l-17.9,4a18.76,18.76,0,0,0-11,6.89q-3.91,5.19-4.44,15.78h.53q2.22-7.1,6.83-10.64t12.23-3.55q9.44,0,15.41,6t6,17.8q0,11.87-6.3,17.84t-17.22,6Q657.5,613.51,651.15,606.84ZM676,604.56q3.18-4.39,3.17-14.88,0-10.17-3.23-14.72t-7.68-4.56q-4.44,0-7.67,4.56t-3.24,14.72q0,10.49,3.18,14.88t7.73,4.4Q672.86,609,676,604.56Z" transform="translate(-7.38 -10.5)" style="fill: #fff"></path>
    <path d="M720,610.07a23,23,0,0,1-8.47-9.32,30.77,30.77,0,0,1,0-26.38,23,23,0,0,1,8.47-9.32,24.13,24.13,0,0,1,13-3.44,24.4,24.4,0,0,1,13.08,3.44,22.9,22.9,0,0,1,8.53,9.32,30.87,30.87,0,0,1,0,26.38,22.9,22.9,0,0,1-8.53,9.32A24.4,24.4,0,0,1,733,613.51,24.13,24.13,0,0,1,720,610.07Zm21.87-7.1q3.24-6,3.23-15.41t-3.23-15.41q-3.23-6-8.84-6c-3.75,0-6.67,2-8.79,6s-3.18,9.12-3.18,15.41S722.11,599,724.23,603s5,6,8.79,6S739.71,607,741.86,603Z" transform="translate(-7.38 -10.5)" style="fill: #fff"></path>
  </g>
  <g>
    <path d="M118.7,667.87c-.22-8.17-4.72-10.51-9.52-10.51a61.39,61.39,0,0,0-6.57.31c-.56,0-.87-.14-.87-.7v-1.73c0-.51.39-.78.87-.86a27.93,27.93,0,0,1,6.61-.56c6.27,0,13.41,2.89,13.41,14.74v3.25c0,11.84-7.14,14.74-13.41,14.74a28.49,28.49,0,0,1-6.61-.56c-.48-.09-.87-.35-.87-.87v-1.73c0-.56.31-.73.87-.69a65.05,65.05,0,0,0,6.57.3c4.93,0,9.52-2.46,9.52-11.19v-.57H104.43a.87.87,0,0,1-.87-.86v-1.64a.87.87,0,0,1,.87-.87Z" transform="translate(-7.38 -10.5)" style="fill: #fff"></path>
    <path d="M176.76,686.25h-3.38a1.17,1.17,0,0,1-.95-.43L160.24,671v14.4a.83.83,0,0,1-.78.87h-2.38a.83.83,0,0,1-.78-.87V654.94a.82.82,0,0,1,.82-.82h2.3a.82.82,0,0,1,.82.82v14l12.45-14.4a1,1,0,0,1,.87-.39h3.11c.69,0,.73.56.43.91l-13,14.7,13,15.57C177.4,685.68,177.4,686.25,176.76,686.25Z" transform="translate(-7.38 -10.5)" style="fill: #fff"></path>
    <path d="M219.42,686.55c-6.78,0-11.71-4-11.71-13.58v-5.58c0-9.59,4.93-13.57,11.71-13.57s11.68,4,11.68,13.57V673C231.1,682.57,226.21,686.55,219.42,686.55Zm7.7-19.16c0-7.26-2.94-10-7.7-10s-7.74,2.77-7.74,10V673c0,7.27,3,10,7.74,10s7.7-2.76,7.7-10Z" transform="translate(-7.38 -10.5)" style="fill: #fff"></path>
    <path d="M274,675.18h-8.6a.73.73,0,0,1-.83-.74v-1.68a.79.79,0,0,1,.83-.78H274a.76.76,0,0,1,.82.78v1.68A.75.75,0,0,1,274,675.18Z" transform="translate(-7.38 -10.5)" style="fill: #fff"></path>
    <path d="M327.76,659.52c0-1.29-.13-1.85-1.94-1.85h-10.9c-1.81,0-1.94.56-1.94,1.85v25.86a.87.87,0,0,1-.87.87h-2.2a.87.87,0,0,1-.87-.87V659.52c0-5,3.76-5.4,5.88-5.4h10.9c2.12,0,5.88.43,5.88,5.4v25.86a.87.87,0,0,1-.87.87h-2.2a.87.87,0,0,1-.87-.87Z" transform="translate(-7.38 -10.5)" style="fill: #fff"></path>
    <path d="M378.17,686.55c-6.79,0-11.72-4-11.72-13.58v-5.58c0-9.59,4.93-13.57,11.72-13.57s11.67,4,11.67,13.57V673C389.84,682.57,385,686.55,378.17,686.55Zm7.7-19.16c0-7.26-2.94-10-7.7-10s-7.74,2.77-7.74,10V673c0,7.27,3,10,7.74,10s7.7-2.76,7.7-10Z" transform="translate(-7.38 -10.5)" style="fill: #fff"></path>
    <path d="M442.41,686a34.44,34.44,0,0,1-7.17.56c-5.32,0-11.42-2.85-11.42-13.36v-6c0-10.6,6.1-13.36,11.42-13.36a46.88,46.88,0,0,1,7.26.69c.39,0,.69.17.69.56v2.21c0,.3-.13.52-.65.47-1.55-.13-4.75-.39-7.26-.39-4.24,0-7.52,2.47-7.52,9.82v6c0,7.26,3.28,9.81,7.52,9.81,2.46,0,5.58-.21,7.13-.34.56,0,.87.13.87.69v1.77C443.28,685.64,442.89,685.9,442.41,686Z" transform="translate(-7.38 -10.5)" style="fill: #fff"></path>
    <path d="M494.6,686.33c-1.65.18-5.89.22-8.44.22-6.05,0-9.21-2.29-9.21-8V661.86c0-5.75,3.16-8,9.21-8,4.2,0,6.62.08,8.44.26a.61.61,0,0,1,.43.6v2.16a.47.47,0,0,1-.48.52h-8.34c-4.59,0-5.32,1.21-5.32,4.5v6h13.27a.87.87,0,0,1,.87.87v1.64a.87.87,0,0,1-.87.86H480.89v7.27c0,3.28.73,4.49,5.32,4.49h8.34a.47.47,0,0,1,.48.52v2.21A.61.61,0,0,1,494.6,686.33Z" transform="translate(-7.38 -10.5)" style="fill: #fff"></path>
    <path d="M540.72,658c-.13-.48-.39-.78-.82-.78s-.74.3-.86.78l-7.53,27.59a.87.87,0,0,1-.78.65h-2.55a.7.7,0,0,1-.73-.7.8.8,0,0,1,0-.3l8-28.15a4.24,4.24,0,0,1,4.41-3.28,4.2,4.2,0,0,1,4.37,3.24l8,28.19a.8.8,0,0,1,0,.3.67.67,0,0,1-.73.7H549a.79.79,0,0,1-.73-.65Z" transform="translate(-7.38 -10.5)" style="fill: #fff"></path>
    <path d="M595.8,686.55c-6.79,0-11.72-4-11.72-13.58v-5.58c0-9.59,4.93-13.57,11.72-13.57s11.67,4,11.67,13.57V673C607.47,682.57,602.59,686.55,595.8,686.55Zm7.7-19.16c0-7.26-2.94-10-7.7-10s-7.74,2.77-7.74,10V673c0,7.27,3,10,7.74,10s7.7-2.76,7.7-10Z" transform="translate(-7.38 -10.5)" style="fill: #fff"></path>
    <path d="M662.68,686.25h-3.37a1.17,1.17,0,0,1-.95-.43L646.16,671v14.4a.82.82,0,0,1-.77.87H643a.82.82,0,0,1-.78-.87V654.94a.82.82,0,0,1,.82-.82h2.29a.82.82,0,0,1,.82.82v14l12.46-14.4a1,1,0,0,1,.86-.39h3.11c.7,0,.74.56.44.91l-13,14.7,13,15.57C663.33,685.68,663.33,686.25,662.68,686.25Z" transform="translate(-7.38 -10.5)" style="fill: #fff"></path>
  </g>
  <path d="M697.36,506.05c-23.31-28.56-96.56-59.07-129-69.72-110-36.13-262.1-35.7-371.67,1.05C149.61,453.17,80.31,486.15,62,517c87-50.91,156.86-82,271-87.27,165.81-7.63,244.7,25.72,281,39.71,6.64,1.92,13.44,3.9,20.49,5.93-4.45.06-11-2.28-20.49-5.93-80.07-23.16-133.26-37.33-234-30.5C338.57,441.7,176.75,464.22,149,510.18c72.3-24.9,85.12-35.29,173.39-38.22,82.22-2.72,117.53,8.08,192,22.93-32.5-34.62-192.79-34.52-235.34-29,47.39-25.76,250.32-14.74,335.75,14.19,39.39,13.34,40.23,17.41,64.94,27.8,14,5.89,8,.69,23.25,6.27C698.19,506.14,702.17,512,697.36,506.05Z" transform="translate(-7.38 -10.5)" style="fill: #fff;fill-rule: evenodd"></path>
  <g>
    <path d="M239.93,310.43c11.13-18.72-11-27.68-21.8-57-27.74-75.31,12.5-163.89,70-191.67a168.9,168.9,0,0,0-37,38.59,155.42,155.42,0,0,1,172-52.3L428.91,50c82.59,27.5,126.55,117.67,97.2,199.65-4.62,26.65-17.12,28.1-3.75,43.73,27.22-21.22,35.57-87.37,31.17-129l-5.57,20c-4.33-31.77-9.71-61.5-33.25-92.08C460.59,22.08,360.41.81,280.4,52.32,263.88,63,254.91,73.69,242.57,84.08c54.84-72.91,116-63.36,171.86-65.35-8.25-5-1.07-1.86-11.78-4.55-64.16-16-143.59,21.9-182.8,82.71-35.74,55.43-35.44,134.38.79,192,5.52,8.79,9,14.89,19.29,21.52" transform="translate(-7.38 -10.5)" style="fill: #fff;fill-rule: evenodd"></path>
    <path d="M582,415c-11.34-11-14.28-20.26-23.11-34.81L541.58,351c-3.56-4.67-3.19-4.38-5.79-5.65-7.43-21.07-21.26-38.75-39.24-47-24.4,5.58-25.77,19.57-46.81,12-7.85-15.6-34.05-59.83-46.53-67.22-4.92-16.75-19-31.33-34.82-38.37-26.38,5.2-54.5,42.37-68.83,66-9,20.54-28.05,35.09-35.93,58.33-9.17,7.8-21.73,26.65-26.06,37.57-21.25-6.28-10.86-10.48-37.26-9.28-14.94,16.88-71.61,102.39-113.1,102.06,32.11,1.78,81.36-38.13,92.09-54.65l2.94,14.83c6.09-13.87,15.82-24.47,25.28-33.83l14,23c13.11-27.68,49.64-62,64.33-89.47.9-.61,2.16-2.78,2.55-2.06,1.35,2.51,5.59-11.2,22.3-18.53-7.71,15.34-21.91,35.87-25.95,51.73,17.66-14.21,43-57.72,47.47-71.42,11.26-6.74,4.58-2.75,10.84-10.09,2.15-2.52,2.25-3.39,4.82-6.33,4.1-4.65,3.34-3.61,5.18-5l-31.88,70.73c12-15,23.42-25.69,31.89-45.21,11.56,10.27,3.73,10.11,12.74,8.41l4.58-25.87,34.89,91.79c10,19.23-.77,5.16,13.31,15l-13.41-77.37c13.24,12.09,19.22,27.58,24.51,34.67l12.35,11.54c.93.71,2.28,1.6,3.46,2.34-4.14-16.89-4.76-18.74-14.44-29.42,5.55-4.33-5.87-5.13,9.93-1.34,5.25,14.72,35.64,38.51,47.9,47.06-7.43-20.7-15.09-14.81-5.18-31,10.63,5.74,1.75-.75,9.61,7.63l17,31.06c4.28-5.71,16.17,11.24,1.39-19.38l10.55,3.85c3,10.94,47.19,74.33,61,77.52,33.29,7.66,7.77-8.94,48.09,13.65,16.9,9.48,30.91,12.86,52.2,17.92C578,392.48,642.41,401.89,582,415Z" transform="translate(-7.38 -10.5)" style="fill: #fff;fill-rule: evenodd"></path>
  </g>
</svg>