<svg xmlns="http://www.w3.org/2000/svg" width="1440" height="691" viewBox="0 0 1440 691" fill="none"> <path d="M-51.5 556L313.5 406L601 343L660 486L807 453.5L1184 291.5L1466 246L1455 691H444.661H-39L-51.5 556Z" fill="#dd6733"/> <path d="M-613 401.299C-568.648 374.212 -522.442 348.236 -472.803 324.261C-410.778 294.305 -338.383 274.41 -264.589 255.52C-249.317 251.611 -195.493 232.782 -174.363 238.796C-152.868 244.913 -202.803 290.575 -207.214 295.158C-244.011 333.39 -285.386 370.716 -315.948 410.78C-338.89 440.855 -366.674 482.963 -349.725 516.263C-333.937 547.282 -277.317 557.79 -225.26 556.954C-58.8055 554.282 94.4947 489.73 228.184 440.542C288.615 418.308 343.579 397.039 407.248 377.858C448.431 365.451 531.814 336.874 584.692 344.541C611.898 348.486 614.943 385.686 616 394.5C619.784 426.071 609.469 431.496 627.5 461.875C666 508.5 748.948 471.548 771.853 461.875C879.123 416.576 1024.78 333.767 1140 295.158C1238.06 262.3 1343.09 234.518 1463.5 238.796C1505.52 240.288 1519.32 276.021 1544.56 293.578C1553.46 299.775 1566.54 327.063 1582.96 330.846C1596.79 334.032 1624.55 318.355 1632.47 314.911C1664.67 300.915 1695.56 286.786 1729.87 274.351C1994.16 178.561 2285.4 99.892 2581 41" stroke="#dd6733" stroke-width="82" stroke-linecap="round"/> </svg>